# xmcd
#
# Track frame offsets:
#	150
#	21842
#	50101
#	87090
#	95929
#	146824
#	176440
#	195753
#	211481
#	228455
#	234540
#	247674
#	266586
#	283499
#
# Disc length: 4152 seconds
#
# Revision: 1
# Processed by: cddbd v1.5.2PL0 Copyright (c) Steve Scherf et al.
# Submitted via: audiograbber 1.83.01
#
DISCID=ca10360e
DTITLE=Jimi Hendrix - Midnight shines down
DYEAR=1900
DGENRE=
TTITLE0=Crash Landing
TTITLE1=Midnight Lightning
TTITLE2=Machine Gun
TTITLE3=Farther On Up The Road
TTITLE4=Astro Man
TTITLE5=Country Blues
TTITLE6=Lord I See The Blues
TTITLE7=Message To Love
TTITLE8=Stone Free
TTITLE9=Instrumental Jam
TTITLE10=Isabella
TTITLE11=Electric Ladyland
TTITLE12=All Along The Watchtower
TTITLE13=Devils Jam
EXTD=
EXTT0=
EXTT1=
EXTT2=
EXTT3=
EXTT4=
EXTT5=
EXTT6=
EXTT7=
EXTT8=
EXTT9=
EXTT10=
EXTT11=
EXTT12=
EXTT13=
PLAYORDER=
